<svg width="75" height="86" viewBox="0 0 75 86" fill="none" xmlns="http://www.w3.org/2000/svg">
<g clip-path="url(#clip0_278_2939)">
<path d="M55.5003 48.3153C55.4765 48.606 55.4526 48.8966 55.4168 49.1833C55.1822 51.3504 54.6826 53.4805 53.9294 55.5258C53.1199 57.7747 51.9069 59.8567 50.35 61.6692C48.782 63.4659 46.8644 64.9237 44.7145 65.9533C42.3304 67.0807 39.7186 67.642 37.0824 67.5936C35.6028 67.6059 34.1254 67.4726 32.6718 67.1955C32.2542 71.4557 32.0037 75.7796 31.944 79.7292C31.944 80.5255 31.9122 81.1585 31.8884 81.6722H31.9957L31.769 83.0179C33.5335 83.2111 35.3074 83.3054 37.0824 83.3006C42.7882 83.3006 47.806 82.3251 52.1357 80.3742C56.2842 78.5521 60.0026 75.8755 63.0489 72.5187C65.9857 69.2395 68.2793 65.4359 69.8099 61.3069C71.3781 57.1377 72.3164 52.7576 72.5939 48.3113L55.5003 48.3153ZM61.3148 11.9962H61.287C60.245 15.8583 58.2008 20.2419 55.1862 25.0714H55.2299L54.3072 26.4609H61.3507V11.837L61.3148 11.9962Z" fill="white"/>
<path d="M52.4737 10.6067L52.3584 11.0566C51.2726 14.8987 48.4648 20.1583 44.5553 25.6567C44.3644 25.9234 44.1576 26.1902 43.9747 26.453C43.9747 26.453 41.9861 26.5008 41.9861 26.5246H40.4947C40.4947 26.5008 37.0903 26.453 37.0903 26.453C36.4142 26.453 35.75 26.4769 35.1018 26.5246L34.0359 26.656L32.4809 26.8511C30.0923 27.2534 27.8178 28.1645 25.8113 29.5227C22.9805 31.436 20.7143 34.0745 19.2491 37.1632C17.8198 40.2465 17.1384 43.6243 17.2605 47.0213C17.3307 50.4453 18.1593 53.811 19.6866 56.8755C20.7755 59.0682 22.2585 61.0414 24.0614 62.6964L23.946 63.5962L23.8506 64.3646C23.2023 69.7197 22.8205 74.8001 22.7091 79.4943H22.6773V80.9157C20.5985 80.1473 18.6122 79.1484 16.7554 77.9375C11.283 74.3675 7.14545 69.8684 4.34293 64.4403C1.5392 59.0322 0.0485618 53.0385 -0.00801045 46.9457C-0.136962 40.8927 1.1874 34.8971 3.85375 29.463C6.50515 24.0375 10.6148 19.5398 16.1827 15.9697C21.7507 12.3997 28.7172 10.6133 37.0824 10.6107L52.4737 10.6067Z" fill="white"/>
<path d="M31.3196 66.861C30.894 71.1769 30.6315 75.5645 30.5679 79.6973C30.5789 80.7522 30.5231 81.8068 30.4009 82.8546C28.2551 82.5613 26.1392 82.0804 24.0773 81.4173V81.2859C24.0773 81.047 24.0773 80.8082 24.0773 80.5653V80.4777C24.0773 80.0596 24.0773 79.6376 24.1091 79.2156C24.1071 79.1944 24.1071 79.173 24.1091 79.1519C24.1369 78.1286 24.1727 77.0974 24.2244 76.0463C24.2244 75.7238 24.2602 75.3973 24.2761 75.0708C24.292 74.7444 24.3119 74.4577 24.3318 74.1511C24.3676 73.534 24.4114 72.9129 24.4631 72.2838C24.4989 71.814 24.5346 71.3402 24.5744 70.8664C24.6341 70.1537 24.7017 69.437 24.7693 68.7124C24.8051 68.3461 24.8449 67.9838 24.8807 67.6175C24.9164 67.2512 24.9602 66.8889 25 66.5186C25.0715 65.8657 25.1471 65.2087 25.2267 64.5478L25.2784 64.0899L25.3181 63.7794C25.6403 64.0382 25.9704 64.285 26.3124 64.5239C27.8321 65.59 29.5269 66.381 31.3196 66.861Z" fill="#615FFF"/>
<path d="M35.1137 26.5326L34.0479 26.664V26.6281C34.4058 26.5883 34.7438 26.5565 35.1137 26.5326Z" fill="#615FFF"/>
<path d="M40.4987 26.5326C40.4987 26.5087 37.0944 26.4609 37.0944 26.4609H40.5266L40.4987 26.5326Z" fill="#615FFF"/>
<path d="M59.6404 44.5926C59.5183 45.2527 59.224 45.8688 58.7875 46.3785C58.351 46.8882 57.7878 47.2734 57.1547 47.4951C56.2559 47.8415 48.5921 48.5302 42.8611 48.809C39.5481 48.9443 35.9569 48.7373 34.7796 48.2555C34.3819 48.0485 34.2984 48.3949 33.5865 51.5721C32.5494 56.6274 31.786 61.7351 31.2997 66.8729C29.5112 66.3916 27.8206 65.6006 26.3045 64.5358C25.9624 64.2969 25.6323 64.0501 25.3102 63.7913V63.7714C26.7499 52.2808 29.3509 40.3045 32.6877 30.4185C32.9502 29.6501 33.2127 28.8896 33.4831 28.1451L35.2251 27.9261C35.8177 27.8823 36.4381 27.8624 37.0505 27.8624C38.017 27.8624 39.063 27.8902 39.7192 27.9062V27.934H39.9379C38.6652 31.4019 37.0943 36.108 36.8835 37.1233C36.8119 37.5414 39.2976 34.7066 42.1293 31.1113C43.0082 30.0203 43.8514 28.9294 44.6468 27.8425L44.6707 27.8106L44.6945 27.7788C44.7383 27.723 44.778 27.6713 44.8138 27.6155C44.8508 27.5733 44.8841 27.528 44.9133 27.4802C44.9502 27.4356 44.9848 27.3891 45.0167 27.3408L45.1479 27.1616L45.2235 27.0581L45.5933 26.5445L45.645 26.4728H52.6407L52.593 26.5445C49.6799 30.8486 46.5222 34.9815 43.1355 38.9229C41.5446 40.7903 40.2362 42.3789 40.2362 42.5063C40.1686 42.7133 47.9001 42.3669 52.8754 41.8812C58.5348 41.3317 58.328 41.3317 59.1592 42.3669C59.7995 43.1951 59.8472 43.5415 59.6404 44.5926Z" fill="#615FFF"/>
<path d="M60.4717 9.25293C60.4001 9.69488 60.3087 10.1488 60.2052 10.6066H53.9055C53.9334 10.4991 53.9532 10.3916 53.9771 10.2881C54.0527 9.88997 54.1203 9.54358 54.172 9.2171C54.6214 6.32654 54.0447 5.73729 52.1834 7.03923C51.3386 7.67439 50.5699 8.40519 49.8927 9.2171H42.7339C44.6548 6.43006 46.6235 4.21636 48.5882 2.68349C50.7994 0.955525 52.5255 0.195063 54.6652 0.0596928C56.1844 -0.079659 56.598 -0.0119748 57.7713 0.680803C60.4001 2.06238 61.1597 4.62247 60.4717 9.25293Z" fill="#615FFF"/>
<path d="M60.1972 10.6067C59.1751 15.1297 56.6377 20.4409 52.6407 26.4609H45.6848C45.9354 26.1066 46.1819 25.7562 46.4245 25.4019C46.5478 25.2267 46.6672 25.0555 46.7785 24.8843C47.1365 24.3587 47.4864 23.8371 47.8205 23.3156C47.9358 23.1444 48.0472 22.9732 48.1506 22.802C48.3733 22.4595 48.5841 22.1211 48.7909 21.7827C48.9977 21.4443 49.1886 21.1098 49.3954 20.7754C49.6023 20.4409 49.7931 20.1105 49.9721 19.784C50.1113 19.5411 50.2465 19.2943 50.3698 19.0514C50.635 18.5657 50.8895 18.0879 51.1334 17.6181L51.4874 16.9173C51.9461 15.9883 52.3438 15.0965 52.6805 14.2418C52.7958 13.9551 52.9072 13.6724 53.0106 13.3977C53.2691 12.7049 53.4919 12.036 53.6708 11.407L53.6947 11.3194L53.8736 10.6107L60.1972 10.6067Z" fill="#615FFF"/>
<path d="M35.1137 26.5326C34.7558 26.5565 34.4058 26.5883 34.0598 26.6281L34.0956 26.5326H35.1137Z" fill="#615FFF"/>
<path d="M30.4009 82.8546C30.3246 83.345 30.1202 83.8066 29.8083 84.1924C28.4958 86.0557 26.0101 86.6092 24.7693 85.2276C24.1568 84.5507 24.0812 84.069 24.0773 81.4173C26.1392 82.0804 28.2551 82.5613 30.4009 82.8546Z" fill="#615FFF"/>
<path d="M45.6332 26.5326L45.2713 27.0462H45.2633L45.6332 26.5326Z" fill="white"/>
<path d="M24.1171 79.2315C24.1151 79.2103 24.1151 79.189 24.1171 79.1678C24.1171 79.6097 24.0893 80.0557 24.0813 80.4936C24.0932 80.0596 24.1052 79.6296 24.1171 79.2315Z" fill="white"/>
<path d="M24.2364 76.0463C24.1887 77.108 24.1503 78.1432 24.1211 79.1518C24.1489 78.1286 24.1847 77.0974 24.2364 76.0463Z" fill="white"/>
<path d="M52.4737 10.6067L52.3584 11.0566C51.2726 14.8987 48.4648 20.1583 44.5553 25.6567C44.3644 25.9234 44.1576 26.1902 43.9747 26.453C43.9747 26.453 41.9861 26.5008 41.9861 26.5246H40.4947C40.4947 26.5008 37.0903 26.453 37.0903 26.453C36.4142 26.453 35.75 26.4769 35.1018 26.5246L34.0359 26.656L32.4809 26.8511C30.0923 27.2534 27.8178 28.1645 25.8113 29.5227C22.9805 31.436 20.7143 34.0745 19.2491 37.1632C17.8198 40.2465 17.1384 43.6243 17.2605 47.0213C17.3307 50.4453 18.1593 53.811 19.6866 56.8755C20.7755 59.0682 22.2585 61.0414 24.0614 62.6964L23.946 63.5962L23.8506 64.3646C23.2023 69.7197 22.8205 74.8001 22.7091 79.4943H22.6773V80.9157C20.5985 80.1473 18.6122 79.1484 16.7554 77.9375C11.283 74.3675 7.14545 69.8684 4.34293 64.4403C1.5392 59.0322 0.0485618 53.0385 -0.00801045 46.9457C-0.136962 40.8927 1.1874 34.8971 3.85375 29.463C6.50515 24.0375 10.6148 19.5398 16.1827 15.9697C21.7507 12.3997 28.7172 10.6133 37.0824 10.6107L52.4737 10.6067Z" fill="white"/>
<path d="M54.2595 9.2171L53.9055 10.6066C53.9334 10.4991 53.9532 10.3916 53.9771 10.2881C54.0527 9.88997 54.1203 9.54358 54.172 9.2171H54.2595Z" fill="white"/>
</g>
<defs>
<clipPath id="clip0_278_2939">
<rect width="75" height="86" fill="white"/>
</clipPath>
</defs>
</svg>
