<svg width="320" height="86" viewBox="0 0 320 86" fill="none" xmlns="http://www.w3.org/2000/svg">
<g clip-path="url(#clip0_276_2889)">
<path d="M319.075 54.2889C318.784 53.9973 318.439 53.7661 318.058 53.6083C317.678 53.4504 317.27 53.3692 316.858 53.3692C316.446 53.3692 316.039 53.4504 315.658 53.6083C315.278 53.7661 314.932 53.9973 314.641 54.2889C285.649 83.277 217.938 82.1787 154.494 69.3853C153.225 69.1389 151.962 68.8742 150.702 68.6095L150.349 68.5365C151.454 67.7046 152.44 66.7261 153.28 65.6279C153.635 65.1604 153.953 64.666 154.232 64.1493C155.422 61.9436 156.563 58.1101 156.666 57.7603C156.703 57.6416 156.736 57.5229 156.77 57.4043C157.141 56.1052 157.397 54.9917 157.567 54.1732C157.61 53.9937 157.658 53.8173 157.704 53.6408L157.686 53.6591C157.686 53.6317 157.704 53.6134 157.713 53.5861C157.722 53.5587 157.731 53.5222 157.741 53.4917C157.951 52.6429 158.179 51.8215 158.416 51.0061C158.434 50.9513 158.434 50.9057 158.444 50.8783C158.446 50.8632 158.446 50.8478 158.444 50.8327C158.882 49.3115 159.338 47.8359 159.788 46.4668C160.738 43.6404 160.838 43.3392 161.185 43.5674C161.879 43.9446 163.598 44.328 165.582 44.6018C166.522 44.7205 167.52 44.8209 168.497 44.906C169.87 44.9882 171.367 45.0612 172.839 45.1251C177.008 45.2894 181.019 45.3259 181.664 45.1616C182.263 45.0249 182.815 44.7323 183.265 44.3134C183.714 43.8945 184.045 43.3642 184.223 42.7764C184.527 41.8636 184.488 41.535 184.013 40.7106C183.353 39.6883 183.544 39.7066 178.326 39.6335C177.513 39.6335 176.619 39.597 175.694 39.5696C173.281 39.4784 170.694 39.3232 168.929 39.1863C167.615 39.0768 166.754 38.9733 166.754 38.9094C166.772 38.7908 168.126 37.4765 169.763 35.94C180.292 26.0339 186.663 17.5091 188.562 10.7184C189.661 6.56855 189.232 4.16504 186.983 2.64688C185.985 1.89844 185.61 1.78892 184.214 1.76153C182.248 1.67026 180.602 2.19051 178.408 3.53526C172.806 6.9884 166.541 15.5893 161.124 27.1414C157.305 35.3285 153.894 45.2803 151.436 55.0586C151.042 56.6224 150.674 58.173 150.331 59.7104C150.331 59.7287 150.331 59.7561 150.331 59.7743L150.313 59.7926C148.986 63.0449 146.153 66.6837 140.083 66.1178C139.425 66.0652 138.772 65.9635 138.129 65.8135C123.195 62.2965 108.723 58.2075 95.2974 53.7869C88.5878 51.5781 82.1429 49.2902 76.0298 46.9506C74.5286 46.3765 73.0355 45.8391 71.5506 45.3381C68.4185 44.2753 65.334 43.3717 62.2972 42.6273C59.163 41.8484 56.0836 41.2339 53.0802 40.7653C43.0569 39.1954 33.8461 39.2624 26.0198 40.5432C26.0867 40.6254 26.1567 40.7075 26.2267 40.7866C27.8111 42.5873 29.7641 44.0264 31.9534 45.0064C32.7992 45.3898 33.6782 45.6953 34.5794 45.9192C35.8412 45.8563 37.1385 45.8238 38.4713 45.8218C40.4188 45.8218 42.4271 45.8918 44.5114 46.0439C49.0714 46.3845 53.6008 47.0535 58.0645 48.0458C63.4145 49.2347 68.668 50.8222 73.7811 52.795C90.1427 59.0563 109.687 65.2416 130.604 70.4623C114.066 77.0157 91.0069 81.2934 59.0991 79.1637C24.3644 76.8514 9.2382 68.6643 6.67 61.7823C5.72975 59.2602 6.51481 56.7289 9.00999 54.2523C11.4443 51.8428 15.5096 49.64 20.8773 48.0915C20.3026 47.565 19.7551 47.0096 19.2372 46.4273C18.2473 45.3201 17.3554 44.1291 16.5716 42.8676C11.493 44.6231 7.40638 47.0023 4.58258 49.8013C0.304267 54.0424 -1.04678 59.0776 0.781996 63.9759C5.12116 75.6101 25.679 83.2222 58.667 85.4249C64.5337 85.8174 70.0992 86 75.4029 86C104.819 86 125.915 80.3441 140.95 72.9419C143.263 73.4713 145.584 73.9855 147.915 74.4844C149.659 74.8586 151.414 75.2268 153.17 75.5736C216.931 88.5678 287.313 90.4815 319.066 58.7217C319.359 58.4323 319.593 58.0876 319.752 57.7075C319.912 57.3273 319.994 56.9194 319.995 56.5072C319.996 56.0949 319.915 55.6866 319.757 55.3059C319.599 54.9251 319.367 54.5794 319.075 54.2889ZM169.191 23.3171C173.223 15.7414 177.912 9.70833 181.238 7.85549C183.267 6.73893 183.623 7.60601 182.546 10.9892C181.01 15.5954 176.193 22.2461 169.669 28.7173C166.723 31.705 164.173 34.0294 164.274 33.6613C164.669 32.5082 167.758 25.894 169.191 23.3171Z" fill="#615FFF"/>
<path d="M57.1334 28.0115C56.9251 30.248 56.5364 32.464 55.971 34.6379C55.4382 36.7659 54.5091 38.7745 53.2324 40.5585L53.0772 40.7684C51.7726 42.4763 50.092 43.8609 48.166 44.8148C47.0103 45.392 45.7821 45.8105 44.5145 46.0592C43.0369 46.3494 41.535 46.4981 40.0292 46.5033C38.1907 46.5528 36.3538 46.3564 34.5672 45.9192C29.9404 46.1207 25.3515 46.8485 20.8894 48.0884C22.9644 49.9725 25.3271 51.5131 27.8881 52.6521C31.3367 54.224 35.3868 55.0099 40.0384 55.0099C44.4749 55.0099 48.3059 54.2108 51.5314 52.6125C53.933 51.4415 56.1364 49.9016 58.0615 48.0489C58.6087 47.522 59.1287 46.9676 59.6194 46.3877C60.618 45.2106 61.5129 43.9494 62.2941 42.6182C63.1996 41.0639 63.9498 39.4243 64.5337 37.7229C65.6235 34.5922 66.2618 31.3222 66.4294 28.0115H57.1334ZM22.7699 34.7049C22.0032 32.4503 21.5986 30.0885 21.571 27.7073C21.5457 25.3342 21.898 22.9722 22.6148 20.7097C23.2944 18.4869 24.382 16.4101 25.822 14.5853C27.2573 12.7931 29.0487 11.3179 31.0831 10.2529C33.1746 9.14145 35.6089 8.58672 38.3861 8.58875H58.5088V0H38.3861C34.053 0 30.2474 0.786975 26.9691 2.36092C23.8251 3.83233 21.0298 5.95519 18.7685 8.58875C16.5692 11.1807 14.8987 14.1781 13.8512 17.4118C12.7743 20.6684 12.2387 24.0796 12.2659 27.5095C12.2938 30.951 12.8954 34.3637 14.046 37.6073C14.6891 39.4484 15.534 41.2125 16.5655 42.8677C19.6372 41.8212 22.7931 41.0405 25.9985 40.5341C24.5706 38.8091 23.4787 36.8319 22.7791 34.7049H22.7699Z" fill="white"/>
<path d="M34.5672 45.9222C29.9404 46.1237 25.3515 46.8515 20.8894 48.0915C20.3147 47.565 19.7673 47.0096 19.2493 46.4273C18.2594 45.3201 17.3675 44.1291 16.5837 42.8676C19.6554 41.8212 22.8114 41.0405 26.0167 40.5341C26.0837 40.6163 26.1536 40.6984 26.2236 40.7775C27.808 42.5782 29.7611 44.0173 31.9504 44.9973C32.7928 45.3843 33.6687 45.6939 34.5672 45.9222Z" fill="#615FFF"/>
<path d="M88.3231 54.8608C84.0387 54.8608 80.4521 53.868 77.5634 51.8823C74.7735 50.0134 72.5304 47.4368 71.0638 44.4162C69.6109 41.3878 68.8817 38.0632 68.9338 34.7048C68.9322 31.3474 69.6731 28.0311 71.1033 24.9934C72.5446 21.972 74.7716 19.3933 77.5512 17.5274C80.442 15.5417 84.0285 14.5478 88.3109 14.5458C92.5933 14.5438 96.1656 15.5376 99.028 17.5274C101.794 19.4019 104.011 21.9788 105.452 24.9934C106.881 28.03 107.608 31.349 107.582 34.7048C107.608 38.0607 106.881 41.3796 105.452 44.4162C104.012 47.4314 101.795 50.0086 99.028 51.8823C96.1738 53.868 92.6055 54.8608 88.3231 54.8608ZM88.3231 46.3421C90.5383 46.3421 92.3823 45.761 93.8551 44.5988C95.3039 43.4662 96.4479 41.9909 97.184 40.3059C97.944 38.5342 98.3254 36.6233 98.3038 34.6957C98.3254 32.7681 97.944 30.8572 97.184 29.0855C96.448 27.3996 95.304 25.9233 93.8551 24.7896C92.3843 23.6315 90.5403 23.0514 88.3231 23.0493C86.1058 23.0473 84.2476 23.6274 82.7485 24.7896C81.2779 25.9157 80.1177 27.3971 79.377 29.0946C78.6145 30.8656 78.232 32.7768 78.2541 34.7048C78.232 36.6328 78.6145 38.544 79.377 40.3151C80.1174 42.0077 81.2754 43.4847 82.7424 44.6079C84.2436 45.7701 86.1038 46.3512 88.3231 46.3512V46.3421Z" fill="white"/>
<path d="M120.051 32.0336C121.599 28.115 123.289 24.9042 125.121 22.4013C126.953 19.8984 128.784 18.0537 130.616 16.8672C132.442 15.6847 134.209 15.1178 135.917 15.1665C137.596 15.2118 139.204 15.8598 140.445 16.9919C141.759 18.1521 142.817 19.8538 143.619 22.0971C144.42 24.3404 144.819 27.0359 144.817 30.1838V54.1702H135.531V28.2489C135.531 25.8778 135.143 24.317 134.368 23.5666C133.593 22.8161 132.639 22.7005 131.505 23.2197C130.369 23.7369 129.13 24.82 127.789 26.469C126.308 28.3487 125.061 30.4011 124.074 32.5813C122.865 35.2239 121.906 37.9741 121.211 40.7958C120.426 43.9337 120.037 47.1572 120.051 50.3916V54.1824H110.764V15.4707H120.051V32.0336Z" fill="white"/>
<path d="M202.112 32.0336C203.664 28.115 205.353 24.9042 207.179 22.4013C209.004 19.8984 210.836 18.0537 212.674 16.8672C214.5 15.6847 216.267 15.1178 217.975 15.1665C219.655 15.2094 221.263 15.8576 222.503 16.9919C223.817 18.1521 224.875 19.8538 225.676 22.0971C226.478 24.3404 226.877 27.0359 226.875 30.1838V54.1702H217.591V28.2488C217.591 25.8778 217.205 24.317 216.432 23.5666C215.659 22.8161 214.705 22.6985 213.569 23.2136C212.431 23.7309 211.192 24.814 209.853 26.4629C208.372 28.3426 207.125 30.395 206.138 32.5752C204.927 35.2173 203.969 37.9676 203.274 40.7897C202.488 43.9272 202.097 47.1509 202.112 50.3855V54.1763H192.825V0.0213013H202.112V32.0336Z" fill="white"/>
<path d="M254.739 37.6073C253.189 41.526 251.499 44.7367 249.67 47.2396C247.84 49.7425 246.008 51.5872 244.174 52.7738C242.348 53.9603 240.581 54.5272 238.873 54.4745C237.194 54.4291 235.587 53.7812 234.346 52.649C233.031 51.4868 231.974 49.7841 231.175 47.5408C230.376 45.2975 229.975 42.602 229.973 39.4541V15.4707H239.26V41.3921C239.26 43.7652 239.647 45.3259 240.422 46.0744C241.197 46.8228 242.152 46.9384 243.286 46.4212C244.42 45.9081 245.658 44.825 247.001 43.1719C248.48 41.295 249.727 39.2469 250.716 37.0719C251.925 34.4288 252.883 31.6787 253.58 28.8573C254.364 25.7194 254.753 22.4959 254.739 19.2616V15.4707H264.026V54.1581H254.739V37.6073Z" fill="white"/>
<path d="M277.339 23.6C277.864 22.4459 278.54 21.3665 279.35 20.3903C280.151 19.4039 281.071 18.52 282.088 17.7586C283.073 17.0224 284.138 16.3998 285.262 15.9027C286.303 15.4301 287.414 15.1291 288.552 15.0113C291.647 14.701 294.381 15.0366 296.752 16.0183C299.034 16.9321 301.064 18.3779 302.674 20.2351C304.286 22.126 305.525 24.3053 306.325 26.6577C307.171 29.0857 307.628 31.6322 307.679 34.2029C307.73 36.7769 307.404 39.3445 306.712 41.8241C306.062 44.2316 304.929 46.4819 303.383 48.4383C301.846 50.3594 299.904 51.9177 297.695 53.0019C295.421 54.1459 292.737 54.6367 289.641 54.4745C288.301 54.4253 286.979 54.1507 285.731 53.6622C284.507 53.1953 283.349 52.5715 282.286 51.8063C281.295 51.0962 280.41 50.2491 279.657 49.2902C278.986 48.4571 278.463 47.5157 278.108 46.5064L276.557 54.1641H267.124L270.376 36.4451H279.66C279.75 37.7867 280.05 39.106 280.549 40.3546C281.013 41.5236 281.667 42.6081 282.484 43.5644C283.26 44.4743 284.207 45.2236 285.271 45.7701C286.286 46.3017 287.415 46.5804 288.561 46.5825C290.727 46.6332 292.533 46.0784 293.977 44.9182C295.417 43.763 296.536 42.2576 297.227 40.5463C297.961 38.7263 298.342 36.783 298.35 34.8205C298.392 32.8394 298.023 30.8711 297.266 29.0399C296.547 27.3035 295.402 25.776 293.938 24.5979C292.467 23.4114 290.623 22.8181 288.406 22.8181C287.146 22.8017 285.896 23.0387 284.73 23.5148C283.61 23.9848 282.576 24.6388 281.672 25.4498C280.733 26.2858 279.901 27.2341 279.195 28.2732C278.459 29.3541 277.837 30.5082 277.339 31.7172H268.052V0H277.339V23.6Z" fill="white"/>
<path d="M150.329 59.6983C150.329 59.7168 150.329 59.7445 150.329 59.7629L150.31 59.7814L150.329 59.6983Z" fill="#615FFF"/>
</g>
<defs>
<clipPath id="clip0_276_2889">
<rect width="320" height="86" fill="white"/>
</clipPath>
</defs>
</svg>
